<?xml version="1.0" encoding="UTF-8" standalone="no"?>
<svg
   data-name="Livello 1"
   id="Livello_1"
   viewBox="0 0 66 66"
   version="1.1"
   sodipodi:docname="favicon.svg"
   inkscape:version="1.3.2 (091e20e, 2023-11-25, custom)"
   inkscape:export-filename="favicon.png"
   inkscape:export-xdpi="744.72998"
   inkscape:export-ydpi="744.72998"
   xmlns:inkscape="http://www.inkscape.org/namespaces/inkscape"
   xmlns:sodipodi="http://sodipodi.sourceforge.net/DTD/sodipodi-0.dtd"
   xmlns:xlink="http://www.w3.org/1999/xlink"
   xmlns="http://www.w3.org/2000/svg"
   xmlns:svg="http://www.w3.org/2000/svg">
  <sodipodi:namedview
     id="namedview2"
     pagecolor="#ffffff"
     bordercolor="#000000"
     borderopacity="0.25"
     inkscape:showpageshadow="2"
     inkscape:pageopacity="0.0"
     inkscape:pagecheckerboard="0"
     inkscape:deskcolor="#d1d1d1"
     inkscape:zoom="8.8863636"
     inkscape:cx="39.273657"
     inkscape:cy="51.70844"
     inkscape:window-width="2560"
     inkscape:window-height="1369"
     inkscape:window-x="2552"
     inkscape:window-y="-8"
     inkscape:window-maximized="1"
     inkscape:current-layer="Livello_1" />
  <defs
     id="defs1">
    <linearGradient
       id="linearGradient2"
       inkscape:collect="always">
      <stop
         style="stop-color:#0e75fa;stop-opacity:1;"
         offset="0"
         id="stop2" />
      <stop
         style="stop-color:#328bfa;stop-opacity:0;"
         offset="1"
         id="stop3" />
    </linearGradient>
    <style
       id="style1">.cls-1{fill:none;stroke:#fff;stroke-linecap:round;stroke-miterlimit:10;stroke-width:2px;}</style>
    <linearGradient
       inkscape:collect="always"
       xlink:href="#linearGradient2"
       id="linearGradient3"
       x1="56.547314"
       y1="10.859335"
       x2="-31.340153"
       y2="83.442451"
       gradientUnits="userSpaceOnUse" />
  </defs>
  <title
     id="title1" />
  <path
     d="M1,34A32,32,0,1,0,33,2,32,32,0,0,0,1,34Z"
     id="path1"
     style="fill:url(#linearGradient3);fill-opacity:1" />
  <g
     id="Dollars">
    <line
       class="cls-1"
       x1="32.97"
       x2="32.93"
       y1="17"
       y2="19.91"
       id="line1" />
    <line
       class="cls-1"
       x1="32.95"
       x2="32.97"
       y1="48.04"
       y2="51"
       id="line2" />
    <path
       class="cls-1"
       d="M23.91,41c0,3.89,4,7,9,7h0c5,0,9-3.15,9-7a6.24,6.24,0,0,0-2.31-4.7,8.17,8.17,0,0,0-4-1.79L31,33.72a9.62,9.62,0,0,1-3.25-1,6.75,6.75,0,0,1-3.87-5.78c0-3.89,4-7,9-7,4.1,0,7.56,2.13,8.66,5"
       id="path2" />
  </g>
</svg>
